<?xml version="1.0" standalone="no"?> <!DOCTYPE svg PUBLIC "-//W3C//DTD SVG 1.0//EN" "http://www.w3.org/TR/2001/REC-SVG-20010904/DTD/svg10.dtd" > <svg xmlns="http://www.w3.org/2000/svg" width="100%" height="100%">
<defs >
<font horiz-adv-x="499" ><font-face
    font-family="Graebenbach Regular"
    units-per-em="1000"
    panose-1="2 11 0 3 4 0 0 0 0 0"
    ascent="996"
    descent="-284"
    alphabetic="0" />
<missing-glyph horiz-adv-x="600" d="M80 692H520V0H80V692ZM204 622L447 132V622H204ZM153 70H396L153 554V70Z" />
<glyph unicode=" " glyph-name="space" horiz-adv-x="230" />
<glyph unicode="!" glyph-name="exclam" horiz-adv-x="288" d="M190 620Q190 593 190 561T188 493T185 423T182 355Q178 278 174 198H114Q110 278 106 355Q104 388 103 423T101 493T99 560T98 620V692H190V620ZM92 112H196V0H92V112Z" />
<glyph unicode="&quot;" glyph-name="quotedbl" horiz-adv-x="372" d="M152 612Q150 585 148 554T143 497Q140 466 137 436H82Q79 466 75 497Q72 523 70 554T65 612L60 692H157L152 612ZM307 612Q305 585 303 554T298 497Q295 466 292 436H237Q234 466 230 497Q227
523 225 554T220 612L215 692H312L307 612Z" />
<glyph unicode="#" glyph-name="numbersign" horiz-adv-x="690" d="M485 692H560L523 495H646V426H511L483 276H617V207H470L432 0H357L395 207H241L203 0H128L166 207H44V276H179L207 426H73V495H219L256 692H331L294 495H448L485 692ZM254 276H408L436 426H282L254
276Z" />
<glyph unicode="$" glyph-name="dollar" horiz-adv-x="602" d="M269 5Q175 14 114 72T40 224L121 276Q122 243 130 210T156 150T201 103T269 79V324Q235 334 200 347T135 380T87 431T68 509Q68 546 83 577T125 632T189 669T269 687V782H346V686Q383 683 418 668T482
630T531 576T560 508L479 456Q478 483 470 509T446 557T405 594T346 613V393Q387 381 426 366T495 328T543 274T562 198Q562 159 546 125T501 65T433 23T346 4V-92H269V5ZM478 194Q478 219 467 237T438 268T396 291T346 309V78Q374 81 398 90T440 114T468 149T478
194ZM151 517Q151 491 160 474T186 445T223 424T269 408V613Q213 607 182 581T151 517Z" />
<glyph unicode="%" glyph-name="percent" horiz-adv-x="853" d="M813 174Q813 133 801 99T767 40T714 2T646 -12Q608 -12 578 1T525 40T491 99T479 174Q479 215 491 249T525 308T577 346T646 360Q683 360 714 347T767 308T801 249T813 174ZM374 518Q374 477 362
443T328 384T275 346T207 332Q169 332 139 345T86 384T52 443T40 518Q40 559 52 593T86 652T138 690T207 704Q244 704 275 691T328 652T362 593T374 518ZM644 704L699 666L209 -12L154 26L644 704ZM207 641Q159 641 137 605T114 518Q114 467 136 431T207 395Q255
395 277 431T300 518Q300 569 278 605T207 641ZM646 297Q598 297 576 261T553 174Q553 123 575 87T646 51Q694 51 716 87T739 174Q739 225 717 261T646 297Z" />
<glyph unicode="&amp;" glyph-name="ampersand" horiz-adv-x="665" d="M286 341Q316 286 352 235T423 146Q454 186 477 248T505 400L583 354Q572 282 545 218T470 98Q484 84 502 72T544 60Q568 60 578 75T593 110L645 43Q628 23 605 6T542 -12Q497 -12 468 5T417
42Q385 19 346 4T261 -12Q217 -12 178 0T109 36T62 95T44 175Q44 211 57 240T91 292T137 334T187 368Q169 410 159 451T148 530Q148 567 160 599T194 654T246 691T315 704Q346 704 374 694T422 666T455 621T467 561Q467 527 453 498T413 441T356 390T286 341ZM368
93Q326 139 287 194T215 309Q179 284 155 256T130 180Q130 152 141 130T171 93T214 69T265 60Q295 60 320 69T368 93ZM227 530Q227 500 235 467T258 400Q280 414 302 430T344 466T375 508T387 557Q387 590 368 611T315 632Q276 632 252 604T227 530Z" />
<glyph unicode="&apos;" glyph-name="quotesingle" horiz-adv-x="217" d="M152 612Q150 585 148 554T143 497Q140 466 137 436H82Q79 466 75 497Q72 523 70 554T65 612L60 692H157L152 612Z" />
<glyph unicode="(" glyph-name="parenleft" horiz-adv-x="323" d="M80 316Q80 394 94 461T131 585T184 686T246 764L311 729Q281 696 255 654T208 560T176 447T164 316Q164 245 175 183T207 68T254 -28T311 -105L246 -140Q214 -107 185 -61T132 43T94 169T80 316Z" />
<glyph unicode=")" glyph-name="parenright" horiz-adv-x="323" d="M243 316Q243 394 229 461T192 585T139 686T77 764L12 729Q42 696 68 654T115 560T147 447T159 316Q159 245 148 183T116 68T69 -28T12 -105L77 -140Q109 -107 138 -61T191 43T229 169T243 316Z" />
<glyph unicode="*" glyph-name="asterisk" horiz-adv-x="461" d="M106 573Q138 560 163 547T199 526L202 528Q200 542 197 569T191 632L188 692H272L269 632Q267 597 264 569T259 528L261 526Q271 533 296 546T354 573L407 595L436 518L383 502Q349 492 322 486T280
476L279 472Q288 463 308 443T351 395L392 347L323 296L288 349Q267 381 252 406T231 439H228Q224 432 209 407T172 349L137 296L68 347L109 395Q132 421 151 442T180 472L179 476Q166 478 139 485T77 502L24 518L53 595L106 573Z" />
<glyph unicode="+" glyph-name="plus" horiz-adv-x="600" d="M260 290H48V366H260V592H340V366H552V290H340V60H260V290Z" />
<glyph unicode="," glyph-name="comma" horiz-adv-x="264" d="M80 112H184V32Q184 -7 181 -34T170 -81T150 -114T118 -138L58 -101Q98 -83 113 -60T130 4H80V112Z" />
<glyph unicode="-" glyph-name="hyphen" horiz-adv-x="331" d="M36 273V346H295V273H36Z" />
<glyph unicode="." glyph-name="period" horiz-adv-x="264" d="M80 112H184V0H80V112Z" />
<glyph unicode="/" glyph-name="slash" horiz-adv-x="391" d="M24 -124H108L367 748H283L24 -124Z" />
<glyph unicode="0" glyph-name="zero" horiz-adv-x="598" d="M142 348Q142 294 149 244T175 154T224 92T299 68Q344 68 374 91T422 154T448 243T456 348Q456 402 449 452T423 540T374 601T299 624Q254 624 224 601T176 540T150 452T142 348ZM52 348Q52 433 69
499T118 611T196 680T299 704Q356 704 401 681T479 612T529 500T546 348Q546 262 529 196T480 83T402 12T299 -12Q242 -12 197 12T119 82T69 195T52 348Z" />
<glyph unicode="1" glyph-name="one" horiz-adv-x="361" d="M190 573Q181 560 166 547T132 522T95 501T58 488L16 557Q49 567 79 583T136 617T182 654T215 692H277V0H190V466Q190 487 190 506T191 541Q191 559 192 573H190Z" />
<glyph unicode="2" glyph-name="two" horiz-adv-x="536" d="M80 403Q76 415 72 430Q69 443 67 459T64 495Q64 543 79 582T123 648T192 689T280 704Q323 704 360 690T426 648T469 584T485 502Q485 447 466 402T416 318T348 246T276 185T213 132T172 83V80H492V0H79Q78
4 78 8Q77 12 77 17T77 31Q77 73 101 109T160 180T238 248T315 319T375 400T399 495Q399 555 366 591T276 628Q215 628 181 591T147 489Q147 446 155 411T171 354L80 403Z" />
<glyph unicode="3" glyph-name="three" horiz-adv-x="534" d="M266 -12Q218 -12 179 2T111 41T64 96T40 163L122 214Q125 185 135 158T162 110T205 77T266 64Q329 64 366 107T404 219Q404 285 367 327T266 369Q227 369 198 355T148 325L117 398L351 612H62V692H469V627L326
494Q314 483 300 471T273 449Q259 438 245 426L246 424Q252 425 259 427Q265 429 272 430T288 431Q331 431 368 416T432 372T474 304T490 219Q490 166 473 123T426 50T355 4T266 -12Z" />
<glyph unicode="4" glyph-name="four" horiz-adv-x="556" d="M52 196L32 252Q100 362 141 471T190 704L271 661Q265 599 250 543T215 439T171 349T125 276H345V692H428V276H528V196H428V0H345V196H52Z" />
<glyph unicode="5" glyph-name="five" horiz-adv-x="542" d="M272 -12Q224 -12 185 2T118 41T72 96T48 163L130 214Q133 185 142 158T169 110T212 77T272 64Q306 64 332 78T376 116T403 171T412 238Q412 272 403 302T375 354T332 389T275 402Q224 402 192 374T145
307L67 347L112 692H453V612H182L167 500Q165 481 162 465T156 437Q152 423 150 411H151Q172 437 207 457T290 478Q333 478 371 462T437 414T482 338T498 238Q498 181 481 135T434 56T363 6T272 -12Z" />
<glyph unicode="6" glyph-name="six" horiz-adv-x="563" d="M308 704Q345 704 377 693T435 662T478 617T504 563L422 511Q416 561 389 594T308 628Q267 628 237 607T184 550T150 467T133 369H136Q158 410 202 437T304 465Q347 465 386 448T455 400T501 326T519
232Q519 181 503 137T457 59T385 7T292 -12Q174 -12 113 72T52 324Q52 402 67 471T113 592T193 674T308 704ZM433 228Q433 262 423 292T395 343T351 377T291 390Q258 390 232 378T186 344T157 293T147 229Q147 194 157 164T186 112T232 77T292 64Q325 64 351 76T395
111T423 163T433 228Z" />
<glyph unicode="7" glyph-name="seven" horiz-adv-x="504" d="M492 630Q412 497 356 338T280 0H183Q206 176 264 328T397 612H116V453L36 496V692H492V630Z" />
<glyph unicode="8" glyph-name="eight" horiz-adv-x="568" d="M284 -12Q235 -12 192 2T117 43T67 108T48 195Q48 235 61 265T94 316T138 350T185 372V374Q164 382 144 395T108 426T83 469T73 524Q73 563 88 596T132 653T198 690T284 704Q330 704 369 691T436 653T479
596T495 524Q495 494 486 470T460 427T424 395T383 374V372Q405 364 429 351T474 316T507 265T520 195Q520 147 502 109T451 44T376 3T284 -12ZM134 200Q134 168 146 143T179 101T227 74T284 64Q314 64 341 73T389 100T422 143T434 200Q434 231 422 256T389 298T341
324T284 333Q254 333 227 324T179 298T146 256T134 200ZM157 518Q157 494 167 474T194 439T234 416T284 408Q311 408 334 416T374 439T401 474T411 518Q411 542 402 562T375 597T334 620T284 628Q257 628 234 620T194 597T167 562T157 518Z" />
<glyph unicode="9" glyph-name="nine" horiz-adv-x="559" d="M274 -12Q189 -12 137 30T65 138L147 190Q150 166 159 143T183 103T220 75T274 64Q317 64 345 84T390 139T414 223T424 329H421Q399 288 356 264T255 239Q211 239 173 255T106 301T61 373T44 466Q44
517 60 560T105 636T176 686T269 704Q387 704 447 624T507 377Q507 295 496 224T459 101T387 18T274 -12ZM130 470Q130 401 167 358T270 314Q336 314 374 357T412 469Q412 503 402 532T374 583T329 616T269 628Q203 628 167 584T130 470Z" />
<glyph unicode=":" glyph-name="colon" horiz-adv-x="264" d="M80 112H184V0H80V112ZM80 504H184V392H80V504Z" />
<glyph unicode=";" glyph-name="semicolon" horiz-adv-x="264" d="M80 112H184V32Q184 -7 181 -34T170 -81T150 -114T118 -138L58 -101Q98 -83 113 -60T130 4H80V112ZM80 504H184V392H80V504Z" />
<glyph unicode="&lt;" glyph-name="less" horiz-adv-x="600" d="M160 325L532 149L498 78L68 290V360L498 572L532 501L160 325Z" />
<glyph unicode="=" glyph-name="equal" horiz-adv-x="600" d="M64 200V276H536V200H64ZM64 380V456H536V380H64Z" />
<glyph unicode="&gt;" glyph-name="greater" horiz-adv-x="600" d="M440 325L68 149L102 78L532 290V360L102 572L68 501L440 325Z" />
<glyph unicode="?" glyph-name="question" horiz-adv-x="484" d="M251 628Q218 628 193 616T151 582T123 530T108 466L28 514Q35 548 52 582T98 643T164 687T251 704Q290 704 324 692T384 658T425 604T440 536Q440 498 427 470T393 418T350 377T306 339T273 300T259
253Q259 226 262 213Q263 204 265 198H204Q198 205 194 216Q190 225 187 237T184 267Q184 300 196 324T228 368T269 405T311 441T342 482T355 535Q355 577 326 602T251 628ZM185 112H289V0H185V112Z" />
<glyph unicode="@" glyph-name="at" horiz-adv-x="873" d="M446 393Q424 393 408 386T379 368T360 342T350 314L280 353Q289 373 304 392T340 426T388 450T448 459Q509 459 548 427T587 325V198Q587 141 638 141Q659 141 677 152T707 183T727 230T735 288Q735
351 714 403T654 494T562 554T446 575Q377 575 320 552T223 487T160 387T138 258Q138 186 160 126T223 24T318 -42T440 -66Q515 -66 575 -42T667 30L742 -15Q722 -36 693 -57T626 -96T542 -123T440 -134Q359 -134 290 -106T169 -27T89 96T60 258Q60 343 89 414T169
537T291 617T446 646Q524 646 591 620T707 545T785 432T813 288Q813 232 797 192T756 126T700 88T638 76Q604 76 572 87T525 131H524Q518 122 507 113T481 95T447 82T407 76Q383 76 362 84T325 106T300 139T290 182Q290 211 302 230T333 263T376 283T424 296Q463
304 488 312T513 342Q513 366 493 379T446 393ZM517 273Q509 262 489 255T442 241Q429 238 415 234T390 224T371 209T363 185Q363 164 380 153T424 141Q441 141 457 146T487 163T509 191T517 230V273Z" />
<glyph unicode="A" glyph-name="A" horiz-adv-x="635" d="M462 196H172L102 0H12L266 692H369L623 0H532L462 196ZM199 272H435L352 504Q347 518 341 535T330 569Q324 587 318 608H316Q310 587 304 569Q299 552 293 535T282 504L199 272Z" />
<glyph unicode="B" glyph-name="B" horiz-adv-x="621" d="M80 692H325Q376 692 418 680T490 646T536 593T553 521Q553 489 545 464T524 421T493 389T456 368V366Q476 360 498 349T538 317T569 267T581 197Q581 106 521 53T349 0H80V692ZM463 507Q463 561 429 586T337
612H168V396H337Q394 396 428 424T463 507ZM491 201Q491 258 455 288T359 318H168V80H359Q419 80 455 112T491 201Z" />
<glyph unicode="C" glyph-name="C" horiz-adv-x="668" d="M352 -12Q289 -12 234 12T137 83T72 197T48 348Q48 432 72 498T137 609T233 679T352 704Q412 704 461 684T545 632T602 559T628 476L544 424Q541 466 528 502T492 566T433 608T352 624Q299 624 259 603T192
545T152 457T138 348Q138 289 151 238T192 150T259 90T352 68Q398 68 433 84T491 128T528 193T544 272L628 220Q623 178 602 137T546 62T461 9T352 -12Z" />
<glyph unicode="D" glyph-name="D" horiz-adv-x="692" d="M312 692Q385 692 446 670T551 604T619 496T644 348Q644 264 620 199T552 90T447 23T312 0H80V692H312ZM554 348Q554 405 540 453T497 537T429 592T337 612H168V80H337Q389 80 429 100T497 157T539 242T554 348Z" />
<glyph unicode="E" glyph-name="E" horiz-adv-x="568" d="M80 692H516V612H168V396H500V316H168V80H524V0H80V692Z" />
<glyph unicode="F" glyph-name="F" horiz-adv-x="544" d="M80 692H508V612H168V392H492V312H168V0H80V692Z" />
<glyph unicode="G" glyph-name="G" horiz-adv-x="704" d="M360 624Q306 624 265 603T195 545T153 457T138 348Q138 289 151 238T190 150T257 90T354 68Q442 68 493 123T544 276V296H300V376H632V0H542L552 112H550Q536 87 517 65T472 25T414 -2T342 -12Q279 -12
225 12T132 83T71 197T48 348Q48 432 72 498T139 610T238 680T360 704Q417 704 464 688T546 643T605 578T640 500L556 448Q550 484 535 516T496 572T437 610T360 624Z" />
<glyph unicode="H" glyph-name="H" horiz-adv-x="688" d="M520 316H168V0H80V692H168V396H520V692H608V0H520V316Z" />
<glyph unicode="I" glyph-name="I" horiz-adv-x="250" d="M80 692H170V0H80V692Z" />
<glyph unicode="J" glyph-name="J" horiz-adv-x="540" d="M468 692V260Q468 126 418 57T257 -12Q201 -12 161 6T95 54T57 126T44 213Q44 230 44 241T47 264L136 316Q134 301 133 287Q131 275 131 261T130 237Q130 160 160 114T257 68Q323 68 351 115T380 250V692H468Z" />
<glyph unicode="K" glyph-name="K" horiz-adv-x="618" d="M80 692H166V448Q166 422 166 399T165 358Q164 337 164 320H166Q176 335 189 353Q200 368 216 388T252 432L472 692H580L354 429L622 0H521L296 362L166 208V0H80V692Z" />
<glyph unicode="L" glyph-name="L" horiz-adv-x="512" d="M80 692H168V80H500V0H80V692Z" />
<glyph unicode="M" glyph-name="M" horiz-adv-x="832" d="M419 112Q424 130 429 149Q434 166 440 186T454 228L618 692H752V0H666V468Q666 494 666 516T667 557Q667 577 668 596H666Q659 577 652 557Q646 540 639 519T624 476L456 0H376L208 476Q200 497 193 518T179
557Q172 577 166 596H164Q164 577 165 557Q165 539 165 517T166 468V0H80V692H218L382 228Q390 207 396 187T407 149Q412 130 417 112H419Z" />
<glyph unicode="N" glyph-name="N" horiz-adv-x="696" d="M488 0L227 480Q217 498 206 519T186 560Q175 582 165 604L163 603Q163 603 163 592T164 562T165 521T166 472V0H80V692H208L469 212Q479 194 490 173T510 132Q521 110 531 88H533Q533 89 533 100T532
129T531 171T530 220V692H616V0H488Z" />
<glyph unicode="O" glyph-name="O" horiz-adv-x="720" d="M360 -12Q295 -12 239 12T140 83T73 197T48 348Q48 432 72 498T139 610T238 680T360 704Q424 704 481 680T580 610T647 498T672 348Q672 264 648 197T581 84T481 13T360 -12ZM582 348Q582 406 568 456T525
544T456 603T360 624Q306 624 265 603T195 545T153 457T138 348Q138 289 152 238T195 150T264 90T360 68Q414 68 455 90T525 149T567 238T582 348Z" />
<glyph unicode="P" glyph-name="P" horiz-adv-x="618" d="M80 692H352Q467 692 530 641T594 492Q594 395 531 342T352 288H168V0H80V692ZM504 492Q504 555 467 583T364 612H168V368H364Q430 368 467 398T504 492Z" />
<glyph unicode="Q" glyph-name="Q" horiz-adv-x="720" d="M360 -12Q295 -12 239 12T140 83T73 197T48 348Q48 432 72 498T139 610T238 680T360 704Q424 704 481 680T580 610T647 498T672 348Q672 233 628 154T511 34V31H518Q572 31 618 9T689 -50L631 -120Q618
-102 599 -83T548 -48T471 -22T360 -12ZM582 348Q582 406 568 456T525 544T456 603T360 624Q306 624 265 603T195 545T153 457T138 348Q138 289 152 238T195 150T264 90T360 68Q414 68 455 90T525 149T567 238T582 348Z" />
<glyph unicode="R" glyph-name="R" horiz-adv-x="626" d="M80 692H344Q459 692 522 640T586 496Q586 424 544 374T426 305L606 0H510L334 296H168V0H80V692ZM496 496Q496 555 459 583T356 612H168V376H356Q422 376 459 406T496 496Z" />
<glyph unicode="S" glyph-name="S" horiz-adv-x="616" d="M277 328Q244 338 207 351T140 385T89 437T68 515Q68 558 85 593T132 653T202 691T288 704Q330 704 371 693T449 659T514 599T560 513L476 461Q471 499 455 529T415 581T358 614T288 626Q261 626 237 619T195
599T167 566T156 523Q156 491 175 471T223 438T290 415T363 393Q402 380 440 365T509 327T557 271T576 190Q576 145 558 108T508 44T430 3T331 -12Q278 -12 231 2T146 44T81 113T44 208L128 260Q132 221 146 186T185 124T246 82T331 66Q364 66 392 74T442 97T476
135T488 186Q488 223 469 245T420 281T352 306T277 328Z" />
<glyph unicode="T" glyph-name="T" horiz-adv-x="536" d="M4 692H532V612H312V0H224V612H4V692Z" />
<glyph unicode="U" glyph-name="U" horiz-adv-x="669" d="M334 -12Q211 -12 142 62T72 283V692H160V279Q160 173 204 121T334 68Q419 68 464 120T509 279V692H597V283Q597 136 527 62T334 -12Z" />
<glyph unicode="V" glyph-name="V" horiz-adv-x="627" d="M280 196Q285 182 291 165T302 131Q308 113 314 93H316Q322 113 328 131Q333 147 339 164T350 196L524 692H615L366 0H261L12 692H106L280 196Z" />
<glyph unicode="W" glyph-name="W" horiz-adv-x="840" d="M596 186Q599 172 602 156T608 124Q612 106 615 88H617Q619 106 622 124Q624 139 626 155T632 186L738 692H826L673 0H561L441 500Q436 518 432 536T426 570Q422 588 421 604H419Q416 588 413 570Q410
555 407 537T399 500L279 0H167L14 692H104L210 186Q212 172 215 156T220 124Q223 106 225 88H227Q229 106 233 124Q236 139 239 155T246 186L366 692H476L596 186Z" />
<glyph unicode="X" glyph-name="X" horiz-adv-x="600" d="M298 305Q290 292 282 279Q275 268 267 253T249 224L113 0H12L241 360L30 692H132L252 496Q261 481 269 467T285 442L300 417H302L317 442Q324 453 332 467T350 496L470 692H570L358 362L588 0H485L349
224Q340 238 331 253T315 279Q307 292 300 305H298Z" />
<glyph unicode="Y" glyph-name="Y" horiz-adv-x="562" d="M237 270L0 692H95L234 437Q243 420 251 404T266 374Q274 358 281 345H283Q289 358 297 374Q304 387 312 403T330 437L470 692H562L325 270V0H237V270Z" />
<glyph unicode="Z" glyph-name="Z" horiz-adv-x="559" d="M28 64L418 612H32V692H529V628L139 80H535V0H28V64Z" />
<glyph unicode="[" glyph-name="bracketleft" horiz-adv-x="331" d="M92 748H311V676H172V-52H311V-124H92V748Z" />
<glyph unicode="\" glyph-name="backslash" horiz-adv-x="391" d="M367 -124H283L24 748H108L367 -124Z" />
<glyph unicode="]" glyph-name="bracketright" horiz-adv-x="331" d="M239 748H20V676H159V-52H20V-124H239V748Z" />
<glyph unicode="^" glyph-name="asciicircum" horiz-adv-x="600" d="M273 692H327L548 393L484 349L300 603L116 349L52 393L273 692Z" />
<glyph unicode="_" glyph-name="underscore" horiz-adv-x="480" d="M60 -49V23H420V-49H60Z" />
<glyph unicode="`" glyph-name="grave" horiz-adv-x="544" d="M288 556Q244 577 199 607T117 680L181 747Q193 727 210 706T247 665T285 627T323 596L288 556Z" />
<glyph unicode="a" glyph-name="a" horiz-adv-x="520" d="M262 444Q230 444 207 434T166 405T139 363T124 312L46 359Q55 392 75 421T123 471T186 504T262 516Q301 516 335 506T396 475T437 420T452 339V108Q452 66 455 44T464 0H396Q384 21 380 35T374 68H372Q363
54 349 40T316 15T272 -4T217 -12Q147 -12 102 26T57 136Q57 176 74 202T120 246T182 272T249 289Q306 301 337 313T368 357Q368 396 338 420T262 444ZM372 272Q360 254 333 243T267 223Q244 218 222 213T181 198T152 173T141 136Q141 103 164 82T233 60Q260 60
285 69T329 96T360 139T372 196V272Z" />
<glyph unicode="b" glyph-name="b" horiz-adv-x="568" d="M156 0H72V724H156V540Q156 517 155 495T153 455Q151 434 150 416H152Q159 432 173 450T206 482T252 506T312 516Q355 516 394 497T461 443T507 359T524 252Q524 193 507 145T462 62T394 8T312 -12Q279
-12 254 -3T209 19T178 48T158 76H156V0ZM152 252Q152 213 161 178T188 117T233 76T296 60Q332 60 359 75T404 117T431 178T440 252Q440 291 431 326T404 387T359 428T296 444Q260 444 233 429T188 387T161 326T152 252Z" />
<glyph unicode="c" glyph-name="c" horiz-adv-x="508" d="M268 444Q232 444 206 429T162 387T137 326T128 252Q128 213 136 178T162 117T205 76T268 60Q299 60 322 72T361 105T384 151T392 204L472 156Q467 129 453 100T414 45T352 4T268 -12Q215 -12 174 8T104
63T60 146T44 252Q44 309 59 357T103 441T173 496T268 516Q316 516 352 500T413 459T453 405T472 348L392 300Q392 327 385 353T362 399T323 431T268 444Z" />
<glyph unicode="d" glyph-name="d" horiz-adv-x="568" d="M416 88Q408 71 395 54T362 22T316 -2T256 -12Q212 -12 174 7T107 61T61 144T44 252Q44 310 61 359T106 442T173 496T256 516Q289 516 314 507T359 484T390 455T410 428H412V724H496V0H412L418 88H416ZM272
60Q308 60 335 75T380 117T407 178T416 252Q416 291 407 326T380 387T335 428T272 444Q236 444 209 429T164 387T137 326T128 252Q128 213 137 178T164 117T209 76T272 60Z" />
<glyph unicode="e" glyph-name="e" horiz-adv-x="524" d="M125 232Q127 196 138 165T167 110T213 74T274 60Q301 60 323 69T361 93T387 130T402 174L481 127Q470 100 451 75T406 31T347 0T274 -12Q220 -12 178 7T105 61T60 144T44 252Q44 309 60 357T107 441T179
496T272 516Q321 516 360 499T427 452T469 379T484 288Q484 276 483 266T481 248Q479 239 478 232H125ZM272 446Q241 446 217 435T174 404T145 358T128 300H401Q401 328 393 354T368 401T328 434T272 446Z" />
<glyph unicode="f" glyph-name="f" horiz-adv-x="344" d="M262 664Q227 664 211 638T194 564V504H320V432H194V0H112V432H24V504H112V568Q112 649 153 692T260 736Q290 736 313 727T354 704T384 673T404 639L324 591Q323 604 319 617T308 640T289 657T262 664Z" />
<glyph unicode="g" glyph-name="g" horiz-adv-x="536" d="M70 348Q70 388 85 419T127 472T188 505T260 516Q278 516 293 514T321 508T349 503T380 500Q413 500 424 513T436 544Q436 556 435 566T432 588L524 536Q524 491 504 472T448 452Q436 452 423 454T400
460V458Q407 451 416 441T432 417T445 386T450 348Q450 310 435 280T393 227T332 192T260 180Q237 180 215 176T176 164T147 145T136 120Q136 102 152 93T208 84Q244 84 279 88T356 92Q390 92 421 84T474 59T510 16T524 -44Q524 -89 502 -120T444 -171T360 -199T264
-208Q217 -208 173 -201T94 -177T38 -134T16 -72Q16 -52 25 -35T50 -5T85 18T124 31V33Q97 42 77 59T56 110Q56 130 64 145T88 172T122 192T162 207V209Q120 229 95 263T70 348ZM92 -66Q92 -85 106 -99T145 -122T200 -135T264 -140Q298 -140 330 -135T388 -118T429
-90T444 -48Q444 -30 434 -18T408 1T370 12T324 16Q293 16 253 13T177 1T117 -24T92 -66ZM150 348Q150 300 182 273T260 246Q305 246 337 273T370 348Q370 396 338 423T260 450Q215 450 183 423T150 348Z" />
<glyph unicode="h" glyph-name="h" horiz-adv-x="548" d="M480 0H396V300Q396 375 367 407T284 440Q255 440 231 429T191 398T165 353T156 298V0H72V724H156V540Q156 517 155 495T153 455Q151 434 150 416H152Q159 432 172 450T204 482T249 506T308 516Q386 516
433 466T480 316V0Z" />
<glyph unicode="i" glyph-name="i" horiz-adv-x="228" d="M72 504H156V0H72V504ZM70 692H158V590H70V692Z" />
<glyph unicode="j" glyph-name="j" horiz-adv-x="236" d="M78 692H166V590H78V692ZM-48 -152Q-9 -145 16 -132T55 -99T74 -48T80 24V504H164V-4Q164 -92 133 -142T32 -208L-48 -152Z" />
<glyph unicode="k" glyph-name="k" d="M304 304L503 0H407L250 243L156 131V0H72V724H156V356Q156 333 155 311T153 271Q151 250 150 231H152Q164 246 176 263Q187 277 199 293T225 326L375 504H476L304 304Z" />
<glyph unicode="l" glyph-name="l" horiz-adv-x="228" d="M72 724H156V0H72V724Z" />
<glyph unicode="m" glyph-name="m" horiz-adv-x="824" d="M72 504H156L150 416H152Q159 432 171 450T201 482T242 506T296 516Q403 516 436 416H438Q445 432 458 450T489 482T533 506T592 516Q667 516 711 468T756 328V0H672V308Q672 377 646 408T572 440Q518
440 487 399T456 292V0H372V315Q372 381 346 410T272 440Q219 440 188 401T156 298V0H72V504Z" />
<glyph unicode="n" glyph-name="n" horiz-adv-x="548" d="M480 0H396V300Q396 375 367 407T284 440Q255 440 231 429T191 398T165 353T156 298V0H72V504H156L150 416H152Q159 432 172 450T204 482T249 506T308 516Q386 516 433 466T480 316V0Z" />
<glyph unicode="o" glyph-name="o" horiz-adv-x="544" d="M272 -12Q219 -12 177 8T106 63T60 146T44 252Q44 309 60 357T105 441T177 496T272 516Q324 516 366 496T438 441T484 358T500 252Q500 195 484 147T439 63T367 8T272 -12ZM128 252Q128 213 137 178T164
117T209 76T272 60Q308 60 335 75T380 117T407 178T416 252Q416 291 407 326T380 387T335 428T272 444Q236 444 209 429T164 387T137 326T128 252Z" />
<glyph unicode="p" glyph-name="p" horiz-adv-x="568" d="M152 416Q159 432 173 450T206 482T252 506T312 516Q355 516 394 497T461 443T507 359T524 252Q524 193 507 145T462 62T394 8T312 -12Q279 -12 254 -3T209 19T178 48T158 76H156V-196H72V504H156L150
416H152ZM152 252Q152 213 161 178T188 117T233 76T296 60Q332 60 359 75T404 117T431 178T440 252Q440 291 431 326T404 387T359 428T296 444Q260 444 233 429T188 387T161 326T152 252Z" />
<glyph unicode="q" glyph-name="q" horiz-adv-x="568" d="M412 504H496V-196H412V-36Q412 -13 412 8T415 48Q416 68 418 88H416Q408 71 395 54T362 22T316 -2T256 -12Q212 -12 174 7T107 61T61 144T44 252Q44 310 61 359T106 442T173 496T256 516Q289 516 314
507T359 484T390 455T410 428H412V504ZM416 252Q416 291 407 326T380 387T335 428T272 444Q236 444 209 429T164 387T137 326T128 252Q128 213 137 178T164 117T209 76T272 60Q308 60 335 75T380 117T407 178T416 252Z" />
<glyph unicode="r" glyph-name="r" horiz-adv-x="410" d="M72 504H156L150 416H152Q167 458 198 485T275 512Q301 512 322 502T358 475T381 433T390 382Q390 371 390 362T388 346Q387 338 387 331L305 282Q307 294 309 307Q311 318 312 331T314 357Q314 390 299
413T250 436Q225 436 208 424T179 392T162 345T156 288V0H72V504Z" />
<glyph unicode="s" glyph-name="s" horiz-adv-x="500" d="M275 56Q314 56 344 75T375 133Q375 155 364 169T333 193T289 210T237 225Q208 233 178 243T122 271T80 313T63 374Q63 407 77 433T116 478T171 506T235 516Q272 516 306 507T369 480T419 438T453 384L375
337Q371 358 360 378T332 413T292 438T239 448Q221 448 204 444T174 431T152 409T144 377Q144 356 158 343T194 320T244 305T299 289Q330 279 358 267T409 238T443 196T456 136Q456 101 442 74T402 28T345 -2T279 -12Q182 -12 123 30T41 143L121 191Q124 165 135
141T165 98T211 68T275 56Z" />
<glyph unicode="t" glyph-name="t" horiz-adv-x="345" d="M333 39Q319 21 292 5T225 -12Q201 -12 180 -6T143 15T118 55T108 118V432H16V504H108V620L190 672V504H320V432H190V125Q190 89 200 75T234 60Q255 60 268 76T288 108L333 39Z" />
<glyph unicode="u" glyph-name="u" horiz-adv-x="540" d="M68 504H152V204Q152 129 179 97T260 64Q289 64 312 75T351 105T375 151T384 206V504H468V0H384L390 88H388Q380 71 368 54T338 22T294 -2T236 -12Q158 -12 113 38T68 188V504Z" />
<glyph unicode="v" glyph-name="v" horiz-adv-x="476" d="M189 247Q197 221 206 195T223 147Q232 121 239 98H241Q248 121 257 147Q265 169 273 195T291 247L378 504H464L280 0H196L12 504H102L189 247V247Z" />
<glyph unicode="w" glyph-name="w" horiz-adv-x="712" d="M464 296Q472 267 481 233T499 168Q508 132 517 96H519Q526 131 533 167Q539 197 546 232T560 296L604 504H688L568 0H471L407 232Q399 260 391 292T375 351Q366 383 358 414H356Q348 383 339 351Q331
324 323 292T307 232L243 0H144L24 504H112L156 296Q162 267 169 232T182 167Q189 131 197 96H199Q199 96 204 117T217 168T234 233T252 296L312 504H404L464 296Z" />
<glyph unicode="x" glyph-name="x" horiz-adv-x="466" d="M283 261L454 0H363L278 135Q267 152 259 165T245 187Q238 198 233 206H231Q226 198 219 187Q213 178 205 165T186 135L101 0H12L182 261L26 504H116L172 415Q183 397 193 380T213 348Q224 331 233 316H235Q244
330 254 347Q262 361 273 378T295 414L352 504H440L283 261Z" />
<glyph unicode="y" glyph-name="y" horiz-adv-x="464" d="M239 109Q246 131 254 155Q261 175 268 198T283 245L367 504H452L272 -21Q263 -46 251 -73T222 -126T180 -173T123 -208L55 -148Q106 -134 141 -102T193 -18L198 -1L12 504H101L190 245Q197 224 205 200T221
156Q229 132 237 109H239Z" />
<glyph unicode="z" glyph-name="z" horiz-adv-x="460" d="M44 504H416V452L147 72H424V0H40V52L308 432H44V504Z" />
<glyph unicode="{" glyph-name="braceleft" horiz-adv-x="376" d="M129 315Q145 309 164 300T199 273T226 228T237 160V21Q237 -24 258 -41T317 -58Q335 -58 347 -55Q354 -54 360 -52L336 -123Q330 -124 324 -125Q318 -126 311 -126T292 -127Q228 -127 193 -94T157
15V153Q157 189 149 212T125 250T90 273T48 287V345Q70 351 90 359T125 382T148 420T157 479V609Q157 684 192 717T292 751Q303 751 310 751T324 749Q330 748 336 747L360 676Q354 677 347 679Q341 680 333 681T317 682Q280 682 259 665T237 603V472Q237 431 227
404T200 360T164 333T129 317V315Z" />
<glyph unicode="|" glyph-name="bar" horiz-adv-x="266" d="M92 748H174V-124H92V748Z" />
<glyph unicode="}" glyph-name="braceright" horiz-adv-x="376" d="M247 315Q231 309 212 300T177 273T150 228T139 160V21Q139 -24 118 -41T59 -58Q41 -58 29 -55Q22 -54 16 -52L40 -123Q46 -124 52 -125Q58 -126 65 -126T84 -127Q148 -127 183 -94T219 15V153Q219
189 227 212T251 250T286 273T328 287V345Q306 351 286 359T251 382T228 420T219 479V609Q219 684 184 717T84 751Q73 751 66 751T52 749Q46 748 40 747L16 676Q22 677 29 679Q35 680 43 681T59 682Q96 682 117 665T139 603V472Q139 431 149 404T176 360T212 333T247
317V315Z" />
<glyph unicode="~" glyph-name="asciitilde" horiz-adv-x="600" d="M405 238Q371 238 343 252T289 283T242 314T198 328Q165 328 149 301T127 241L56 284Q61 306 72 328T101 368T142 396T195 407Q229 407 257 393T311 362T358 331T402 317Q435 317 451 344T473
404L544 361Q539 338 528 316T499 277T458 249T405 238Z" />
</font>
</defs>
</svg>
